<?xml version="1.0" encoding="iso-8859-1"?>
<!-- Generator: Adobe Illustrator 19.0.0, SVG Export Plug-In . SVG Version: 6.00 Build 0)  -->
<svg version="1.1" id="Capa_1" xmlns="http://www.w3.org/2000/svg" xmlns:xlink="http://www.w3.org/1999/xlink" x="0px" y="0px"
	 viewBox="0 0 512 512" style="enable-background:new 0 0 512 512;" xml:space="preserve">
<path style="fill:#FF9100;" d="M196,201.799V361.5c0,24.899-20.099,45-45,45h-30c-24.901,0-45-20.101-45-45v-15l45-30v-61l-45-30
	v-23.701c0-17.699,6.899-34.499,19.501-46.8c6.599-6.9,10.499-15.899,10.499-25.8V75.5l20.7-30h20.4l18.9,30v53.699
	c0,9.901,3.9,18.9,10.499,25.8C189.101,167.3,196,184.1,196,201.799z"/>
<path style="fill:#FFD396;" d="M136,331.5v-91c0-8.286-6.716-15-15-15H76v121h45C129.284,346.5,136,339.784,136,331.5z"/>
<path style="fill:#FF7816;" d="M196,201.799V361.5c0,24.899-20.099,45-45,45h-15v-361h11.1l18.9,30v53.699
	c0,9.901,3.9,18.9,10.499,25.8C189.101,167.3,196,184.1,196,201.799z"/>
<path style="fill:#FF9100;" d="M316,201.799V361.5c0,24.899-20.099,45-45,45h-30c-24.901,0-45-20.101-45-45v-15l45-30v-61l-45-30
	v-23.701c0-17.699,6.899-34.499,19.501-46.8c6.599-6.9,10.499-15.899,10.499-25.8V75.5l20.7-30h20.4l18.9,30v53.699
	c0,9.901,3.9,18.9,10.499,25.8C309.101,167.3,316,184.1,316,201.799z"/>
<path style="fill:#FFD396;" d="M256,331.5v-91c0-8.286-6.716-15-15-15h-45v121h45C249.284,346.5,256,339.784,256,331.5z"/>
<path style="fill:#FF7816;" d="M316,201.799V361.5c0,24.899-20.099,45-45,45h-15v-361h11.1l18.9,30v53.699
	c0,9.901,3.9,18.9,10.499,25.8C309.101,167.3,316,184.1,316,201.799z"/>
<path style="fill:#FF9100;" d="M436,201.799V361.5c0,24.899-20.099,45-45,45h-30c-24.901,0-45-20.101-45-45v-15l45-30v-61l-45-30
	v-23.701c0-17.699,6.899-34.499,19.501-46.8c6.599-6.9,10.499-15.899,10.499-25.8V75.5l20.7-30h20.4l18.9,30v53.699
	c0,9.901,3.9,18.9,10.499,25.8C429.101,167.3,436,184.1,436,201.799z"/>
<path style="fill:#FFD396;" d="M376,331.5v-91c0-8.286-6.716-15-15-15h-45v121h45C369.284,346.5,376,339.784,376,331.5z"/>
<path style="fill:#FF7816;" d="M436,201.799V361.5c0,24.899-20.099,45-45,45h-15v-361h11.1l18.9,30v53.699
	c0,9.901,3.9,18.9,10.499,25.8C429.101,167.3,436,184.1,436,201.799z"/>
<path style="fill:#883F2E;" d="M166,30.5v45h-60v-45c0-8.401,6.599-15,15-15h30C159.401,15.5,166,22.099,166,30.5z"/>
<path style="fill:#6D3326;" d="M166,30.5v45h-30v-60h15C159.401,15.5,166,22.099,166,30.5z"/>
<path style="fill:#883F2E;" d="M286,30.5v45h-60v-45c0-8.401,6.599-15,15-15h30C279.401,15.5,286,22.099,286,30.5z"/>
<path style="fill:#6D3326;" d="M286,30.5v45h-30v-60h15C279.401,15.5,286,22.099,286,30.5z"/>
<path style="fill:#883F2E;" d="M406,30.5v45h-60v-45c0-8.401,6.599-15,15-15h30C399.401,15.5,406,22.099,406,30.5z"/>
<path style="fill:#6D3326;" d="M406,30.5v45h-30v-60h15C399.401,15.5,406,22.099,406,30.5z"/>
<g>
	<path id="SVGCleanerId_0" style="fill:#5A5A5A;" d="M256,346.5c-41.4,0-75,33.6-75,75s33.6,75,75,75s75-33.6,75-75
		S297.4,346.5,256,346.5z"/>
</g>
<path style="fill:#444444;" d="M331,421.5c0,41.4-33.6,75-75,75v-150C297.4,346.5,331,380.1,331,421.5z"/>
<path style="fill:#C5D3DD;" d="M256,376.5c-24.901,0-45,20.099-45,45c0,24.899,20.099,45,45,45s45-20.101,45-45
	C301,396.599,280.901,376.5,256,376.5z"/>
<g>
	<path id="SVGCleanerId_1" style="fill:#B6C4CF;" d="M301,421.5c0,24.899-20.099,45-45,45v-90C280.901,376.5,301,396.599,301,421.5z
		"/>
</g>
<path style="fill:#5A5A5A;" d="M271,421.5c0,8.399-6.599,15-15,15s-15-6.601-15-15c0-8.401,6.599-15,15-15S271,413.099,271,421.5z"
	/>
<g>
	<path id="SVGCleanerId_2" style="fill:#444444;" d="M271,421.5c0,8.399-6.599,15-15,15v-30C264.401,406.5,271,413.099,271,421.5z"
		/>
</g>
<rect x="76" y="346.5" style="fill:#6D3326;" width="360" height="150"/>
<rect x="256" y="346.5" style="fill:#55271A;" width="180" height="150"/>
<rect x="91" y="376.5" style="fill:#FFE1BA;" width="330" height="90"/>
<rect x="256" y="376.5" style="fill:#FFD396;" width="165" height="90"/>
<path style="fill:#883F2E;" d="M76,346.5c-41.4,0-76,33.6-76,75s34.6,75,76,75s75-33.6,75-75S117.4,346.5,76,346.5z"/>
<path style="fill:#FFE1BA;" d="M76,376.5c-24.901,0-46,20.099-46,45c0,24.899,21.099,45,46,45s45-20.101,45-45
	C121,396.599,100.901,376.5,76,376.5z"/>
<path style="fill:#6D3326;" d="M91,421.5c0,8.399-6.599,15-15,15s-15-6.601-15-15c0-8.401,6.599-15,15-15S91,413.099,91,421.5z"/>
<g>
	<path id="SVGCleanerId_0_1_" style="fill:#5A5A5A;" d="M256,346.5c-41.4,0-75,33.6-75,75s33.6,75,75,75s75-33.6,75-75
		S297.4,346.5,256,346.5z"/>
</g>
<g>
	<path id="SVGCleanerId_3" style="fill:#444444;" d="M331,421.5c0,41.4-33.6,75-75,75v-150C297.4,346.5,331,380.1,331,421.5z"/>
</g>
<path style="fill:#C5D3DD;" d="M256,376.5c-24.901,0-45,20.099-45,45c0,24.899,20.099,45,45,45s45-20.101,45-45
	C301,396.599,280.901,376.5,256,376.5z"/>
<g>
	<path id="SVGCleanerId_1_1_" style="fill:#B6C4CF;" d="M301,421.5c0,24.899-20.099,45-45,45v-90
		C280.901,376.5,301,396.599,301,421.5z"/>
</g>
<g>
	<path id="SVGCleanerId_4" style="fill:#5A5A5A;" d="M271,421.5c0,8.399-6.599,15-15,15s-15-6.601-15-15c0-8.401,6.599-15,15-15
		S271,413.099,271,421.5z"/>
</g>
<g>
	<path id="SVGCleanerId_2_1_" style="fill:#444444;" d="M271,421.5c0,8.399-6.599,15-15,15v-30C264.401,406.5,271,413.099,271,421.5
		z"/>
</g>
<path style="fill:#6D3326;" d="M436,346.5c-41.4,0-75,33.6-75,75s33.6,75,75,75s76-33.6,76-75S477.4,346.5,436,346.5z"/>
<path style="fill:#FFC473;" d="M436,376.5c-24.901,0-45,20.099-45,45c0,24.899,20.099,45,45,45s46-20.101,46-45
	C482,396.599,460.901,376.5,436,376.5z"/>
<path style="fill:#55271A;" d="M451,421.5c0,8.399-6.599,15-15,15s-15-6.601-15-15c0-8.401,6.599-15,15-15S451,413.099,451,421.5z"
	/>
<g>
	<path id="SVGCleanerId_0_2_" style="fill:#5A5A5A;" d="M256,346.5c-41.4,0-75,33.6-75,75s33.6,75,75,75s75-33.6,75-75
		S297.4,346.5,256,346.5z"/>
</g>
<g>
	<path id="SVGCleanerId_3_1_" style="fill:#444444;" d="M331,421.5c0,41.4-33.6,75-75,75v-150C297.4,346.5,331,380.1,331,421.5z"/>
</g>
<path style="fill:#C5D3DD;" d="M256,376.5c-24.901,0-45,20.099-45,45c0,24.899,20.099,45,45,45s45-20.101,45-45
	C301,396.599,280.901,376.5,256,376.5z"/>
<g>
	<path id="SVGCleanerId_1_2_" style="fill:#B6C4CF;" d="M301,421.5c0,24.899-20.099,45-45,45v-90
		C280.901,376.5,301,396.599,301,421.5z"/>
</g>
<g>
	<path id="SVGCleanerId_4_1_" style="fill:#5A5A5A;" d="M271,421.5c0,8.399-6.599,15-15,15s-15-6.601-15-15c0-8.401,6.599-15,15-15
		S271,413.099,271,421.5z"/>
</g>
<g>
	<path id="SVGCleanerId_2_2_" style="fill:#444444;" d="M271,421.5c0,8.399-6.599,15-15,15v-30C264.401,406.5,271,413.099,271,421.5
		z"/>
</g>
<g>
	<path id="SVGCleanerId_0_3_" style="fill:#883F2E;" d="M256,346.5c-41.4,0-75,33.6-75,75s33.6,75,75,75s75-33.6,75-75
		S297.4,346.5,256,346.5z"/>
</g>
<g>
	<path id="SVGCleanerId_3_2_" style="fill:#6D3326;" d="M331,421.5c0,41.4-33.6,75-75,75v-150C297.4,346.5,331,380.1,331,421.5z"/>
</g>
<path style="fill:#FFE1BA;" d="M256,376.5c-24.901,0-45,20.099-45,45c0,24.899,20.099,45,45,45s45-20.101,45-45
	C301,396.599,280.901,376.5,256,376.5z"/>
<g>
	<path id="SVGCleanerId_1_3_" style="fill:#FFC473;" d="M301,421.5c0,24.899-20.099,45-45,45v-90
		C280.901,376.5,301,396.599,301,421.5z"/>
</g>
<g>
	<path id="SVGCleanerId_4_2_" style="fill:#6D3326;" d="M271,421.5c0,8.399-6.599,15-15,15s-15-6.601-15-15c0-8.401,6.599-15,15-15
		S271,413.099,271,421.5z"/>
</g>
<g>
	<path id="SVGCleanerId_2_3_" style="fill:#55271A;" d="M271,421.5c0,8.399-6.599,15-15,15v-30C264.401,406.5,271,413.099,271,421.5
		z"/>
</g>
<g>
</g>
<g>
</g>
<g>
</g>
<g>
</g>
<g>
</g>
<g>
</g>
<g>
</g>
<g>
</g>
<g>
</g>
<g>
</g>
<g>
</g>
<g>
</g>
<g>
</g>
<g>
</g>
<g>
</g>
</svg>
