<?xml version="1.0"?>
<svg xmlns="http://www.w3.org/2000/svg" viewBox="0 0 64 64" width="512" height="512"><path d="m5 21v36a2 2 0 0 0 0 4h28a2 2 0 0 0 0-4v-3h5.625a5.374 5.374 0 0 0 5.375-5.375v-10.214c-.231-.047-.469-.077-.7-.135l-.074-.019a14.862 14.862 0 0 1 -1.61-.514h-.011a14.641 14.641 0 0 1 -1.605-.743v10a3 3 0 0 1 -3 3h-4l-.444-29z" fill="#cfcfcf"/><path d="m5 21v35a1 1 0 0 0 1 1h26a1 1 0 0 0 1-1v-35z" fill="#f4c734"/><path d="m32.916 19.9a7.99 7.99 0 0 0 -12.952-5.116 5.983 5.983 0 0 0 -6.816.616 5.988 5.988 0 0 0 -8.148 5.6h2a2 2 0 0 1 2 2v1.83a3.114 3.114 0 0 0 2.839 3.17 3 3 0 0 0 3.161-3v1.83a3.114 3.114 0 0 0 2.839 3.17 3 3 0 0 0 3.161-3v-4a2 2 0 0 1 2-2h9.556c.103-.373.229-.736.36-1.1z" fill="#f9f2cc"/><g fill="#e0b730"><path d="m20 57a.964.964 0 0 0 1-.923v-22.154a.964.964 0 0 0 -1-.923.964.964 0 0 0 -1 .923v22.154a.964.964 0 0 0 1 .923z"/><path d="m13 57a.964.964 0 0 0 1-.923v-22.154a.964.964 0 0 0 -1-.923.964.964 0 0 0 -1 .923v22.154a.964.964 0 0 0 1 .923z"/><path d="m27 57a.964.964 0 0 0 1-.923v-22.154a.964.964 0 0 0 -1-.923.964.964 0 0 0 -1 .923v22.154a.964.964 0 0 0 1 .923z"/></g><rect fill="#ccc" height="2" rx="1" width="26" x="6" y="57"/><circle cx="16" cy="7" fill="#f9f2cc" r="3"/><circle cx="5" cy="5" fill="#f9f2cc" r="2"/><circle cx="46" cy="25" fill="#a3740c" r="15"/><path d="m41.732 31.488a9 9 0 0 0 4.993 1.512h6.168a2.075 2.075 0 0 0 2.08-1.664 2 2 0 0 0 -1.973-2.336 2 2 0 0 0 0-4 2 2 0 0 0 1.973-2.336 2.075 2.075 0 0 0 -2.08-1.664h-2.393a2.5 2.5 0 0 1 -2.5-2.5v-1.5a4 4 0 0 0 -2.715-3.789.992.992 0 0 0 -1.285.958v5.831c0 1.422-.551 2.185-1.367 2.457l-.949.316a1 1 0 0 0 -.684.949v6.744a1 1 0 0 0 .445.832z" fill="#f9f2cc"/><rect fill="#f9f2cc" height="10" rx="1" width="4" x="37" y="22"/><path d="m18 32h2v26h-2z"/><path d="m11 32h2v26h-2z"/><path d="m25 32h2v26h-2z"/><path d="m12 7a4 4 0 1 0 4-4 4 4 0 0 0 -4 4zm6 0a2 2 0 1 1 -2-2 2 2 0 0 1 2 2z"/><path d="m5 8a3 3 0 1 0 -3-3 3 3 0 0 0 3 3zm0-4a1 1 0 1 1 -1 1 1 1 0 0 1 1-1z"/><path d="m46 9a15.992 15.992 0 0 0 -13.373 7.24 8.983 8.983 0 0 0 -12.766-2.626 7.107 7.107 0 0 0 -6.9.671 6.917 6.917 0 0 0 -1.961-.285 7.008 7.008 0 0 0 -7 7v35.171a3 3 0 0 0 1 5.829h28a3 3 0 0 0 1-5.829v-1.171h4a7.008 7.008 0 0 0 7-7v-7.051c.332.021.662.051 1 .051a16 16 0 0 0 0-32zm-12 26.547a16.054 16.054 0 0 0 5 3.818v7.635a2 2 0 0 1 -2 2h-3zm-3.949-11.547h-8.051v-2h8.292a15.856 15.856 0 0 0 -.241 2zm-19.051-8a4.977 4.977 0 0 1 1.789.336 1 1 0 0 0 1-.167 5.09 5.09 0 0 1 5.679-.513 1 1 0 0 0 1.125-.093 6.97 6.97 0 0 1 10.864 2.8 15.841 15.841 0 0 0 -.646 1.637h-9.811a1 1 0 0 0 -1 1v6a2 2 0 0 1 -4 0v-2a1 1 0 0 0 -2 0 2 2 0 0 1 -4 0v-4a1 1 0 0 0 -1-1h-2.9a5.009 5.009 0 0 1 4.9-4zm-5 8v-2h2v2zm27 36h-28a1 1 0 0 1 0-2 1 1 0 0 0 1-1v-31h2.142a3.985 3.985 0 0 0 6.083 2.323 4 4 0 0 0 7.775-1.323v-1h8.051a15.879 15.879 0 0 0 1.949 6.729v24.271a1 1 0 0 0 1 1 1 1 0 0 1 0 2zm10-12a5.006 5.006 0 0 1 -5 5h-4v-2h3a4 4 0 0 0 4-4v-6.811a15.9 15.9 0 0 0 2 .519zm3-9a14 14 0 1 1 14-14 14.015 14.015 0 0 1 -14 14z"/><path d="m53 20h-2.5a1.5 1.5 0 0 1 -1.5-1.5v-1.5a5.006 5.006 0 0 0 -5-5 1 1 0 0 0 -1 1v7.559a1 1 0 0 1 -.684.948l-.389.13a1 1 0 0 0 -.927-.637h-4a1 1 0 0 0 -1 1v10a1 1 0 0 0 1 1h4a.988.988 0 0 0 .75-.356 9.946 9.946 0 0 0 4.976 1.356h6.274a2.987 2.987 0 0 0 2.22-5 2.954 2.954 0 0 0 0-4 2.987 2.987 0 0 0 -2.22-5zm-13 11h-2v-8h2zm13 1h-6.274a7.975 7.975 0 0 1 -4.439-1.344l-.287-.191v-6.744l.949-.316a3 3 0 0 0 2.051-2.846v-6.388a3.006 3.006 0 0 1 2 2.829v1.5a3.5 3.5 0 0 0 3.5 3.5h2.5a1 1 0 0 1 0 2v2a1 1 0 0 1 0 2v2a1 1 0 0 1 0 2z"/><path d="m33 2h2v2h-2z"/><path d="m35 4h2v2h-2z"/><path d="m33 6h2v2h-2z"/><path d="m31 4h2v2h-2z"/><path d="m58 2h2v2h-2z"/><path d="m60 4h2v2h-2z"/><path d="m58 6h2v2h-2z"/><path d="m56 4h2v2h-2z"/><path d="m51 2h2v2h-2z"/><path d="m27 4h2v2h-2z"/><path d="m58 43h2v2h-2z"/><path d="m60 45h2v2h-2z"/><path d="m58 47h2v2h-2z"/><path d="m56 45h2v2h-2z"/><path d="m51 43h2v2h-2z"/></svg>
